<svg width="340" height="124" viewBox="0 0 340 124" fill="none" xmlns="http://www.w3.org/2000/svg">
<path d="M55.2987 122.5L2.51564 1.50015L337.799 1.50015L286.732 122.5L55.2987 122.5Z" fill="#f5c30f"/>
<path d="M2.51564 1.50015V0.500153L0.988417 0.500153L1.59906 1.89999L2.51564 1.50015ZM55.2987 122.5L54.3821 122.9L54.6439 123.5H55.2987V122.5ZM286.732 122.5V123.5H287.396L287.653 122.889L286.732 122.5ZM337.799 1.50015L338.721 1.88898L339.307 0.500153L337.799 0.500153V1.50015ZM1.59906 1.89999L54.3821 122.9L56.2153 122.1L3.43223 1.10032L1.59906 1.89999ZM55.2987 123.5L286.732 123.5V121.5L55.2987 121.5V123.5ZM287.653 122.889L338.721 1.88898L336.878 1.11132L285.811 122.111L287.653 122.889ZM337.799 0.500153L2.51564 0.500153V2.50015L337.799 2.50015V0.500153Z" fill="black"/>
</svg>
