<svg width="340" height="124" viewBox="0 0 340 124" fill="none" xmlns="http://www.w3.org/2000/svg">
<path d="M284.76 1.50013L337.501 122.5L2.48926 122.5L53.515 1.50013L284.76 1.50013Z" fill="#f5c30f"/>
<path d="M337.501 122.5V123.5H339.027L338.417 122.101L337.501 122.5ZM284.76 1.50013L285.677 1.10057L285.415 0.500129H284.76V1.50013ZM53.515 1.50013V0.500129H52.8514L52.5935 1.11157L53.515 1.50013ZM2.48926 122.5L1.56784 122.112L0.982279 123.5H2.48926V122.5ZM338.417 122.101L285.677 1.10057L283.844 1.89969L336.584 122.9L338.417 122.101ZM284.76 0.500129L53.515 0.500129V2.50013L284.76 2.50013V0.500129ZM52.5935 1.11157L1.56784 122.112L3.41068 122.889L54.4364 1.88869L52.5935 1.11157ZM2.48926 123.5L337.501 123.5V121.5L2.48926 121.5V123.5Z" fill="black"/>
</svg>
