<svg width="178" height="166" viewBox="0 0 178 166" fill="none" xmlns="http://www.w3.org/2000/svg">
<mask id="path-1-inside-1" fill="white">
<path fill-rule="evenodd" clip-rule="evenodd" d="M0.500732 165.5L0.500732 0.500153L132.775 0.500153V46.5001L177.501 46.5001L177.501 165.5L0.500732 165.5Z"/>
</mask>
<path fill-rule="evenodd" clip-rule="evenodd" d="M0.500732 165.5L0.500732 0.500153L132.775 0.500153V46.5001L177.501 46.5001L177.501 165.5L0.500732 165.5Z" fill="white"/>
<path d="M0.500732 0.500153L-1.49927 0.500153L-1.49927 -1.49985L0.500732 -1.49985L0.500732 0.500153ZM0.500732 165.5L0.500732 167.5H-1.49927L-1.49927 165.5H0.500732ZM132.775 0.500153V-1.49985L134.775 -1.49985V0.500153L132.775 0.500153ZM132.775 46.5001V48.5001H130.775V46.5001H132.775ZM177.501 46.5001V44.5001L179.501 44.5001V46.5001H177.501ZM177.501 165.5H179.501V167.5H177.501V165.5ZM2.50073 0.500153L2.50073 165.5H-1.49927L-1.49927 0.500153L2.50073 0.500153ZM132.775 2.50015L0.500732 2.50015L0.500732 -1.49985L132.775 -1.49985V2.50015ZM134.775 0.500153V46.5001H130.775V0.500153L134.775 0.500153ZM132.775 44.5001L177.501 44.5001V48.5001L132.775 48.5001V44.5001ZM175.501 165.5L175.501 46.5001L179.501 46.5001L179.501 165.5H175.501ZM0.500732 163.5L177.501 163.5V167.5L0.500732 167.5L0.500732 163.5Z" fill="black" mask="url(#path-1-inside-1)"/>
</svg>
